<?xml version="1.0" standalone="no"?>
<!DOCTYPE svg PUBLIC "-//W3C//DTD SVG 20010904//EN"
 "http://www.w3.org/TR/2001/REC-SVG-20010904/DTD/svg10.dtd">
<svg version="1.0" xmlns="http://www.w3.org/2000/svg"
 width="512.000000pt" height="512.000000pt" viewBox="0 0 512.000000 512.000000"
 preserveAspectRatio="xMidYMid meet">

<g transform="translate(0.000000,512.000000) scale(0.100000,-0.100000)"
fill="white" stroke="none">
<path d="M913 5105 c-73 -20 -115 -39 -170 -76 -66 -44 -535 -510 -589 -585
-248 -345 -195 -897 161 -1639 394 -825 1121 -1644 1915 -2160 461 -299 884
-496 1255 -585 184 -44 266 -54 440 -54 133 1 173 4 240 22 91 25 203 76 272
123 73 50 563 548 601 611 55 93 76 162 76 263 1 58 -5 109 -16 145 -39 125
-73 165 -463 556 -237 238 -393 386 -434 412 -168 111 -381 111 -552 1 -37
-24 -152 -129 -274 -250 l-210 -208 -103 54 c-187 100 -391 249 -607 445 -310
281 -634 685 -747 932 l-26 55 175 174 c194 194 268 279 308 356 86 167 72
360 -39 523 -27 39 -191 211 -413 431 -357 355 -371 367 -453 407 -126 62
-236 77 -347 47z m222 -304 c32 -19 182 -162 412 -393 353 -355 362 -364 378
-421 18 -64 11 -121 -22 -175 -9 -15 -123 -135 -253 -267 -264 -267 -278 -288
-267 -387 8 -69 113 -279 212 -426 279 -414 711 -848 1115 -1121 152 -102 385
-220 450 -228 98 -11 119 4 380 267 153 154 251 245 280 260 61 31 140 32 200
1 30 -15 165 -142 403 -380 383 -381 407 -411 407 -500 0 -86 -28 -123 -295
-393 -267 -271 -303 -299 -431 -333 -132 -36 -389 -16 -628 50 -387 106 -923
389 -1356 715 -633 478 -1185 1130 -1518 1796 -125 249 -226 519 -279 741 -24
105 -27 137 -28 293 0 195 9 237 71 340 43 71 513 542 569 569 62 31 138 28
200 -8z"/>
</g>
</svg>
